<?xml version="1.0" standalone="no"?><!DOCTYPE svg PUBLIC "-//W3C//DTD SVG 1.1//EN" "http://www.w3.org/Graphics/SVG/1.1/DTD/svg11.dtd"><svg t="1657696686775" class="icon" viewBox="0 0 1024 1024" version="1.1" xmlns="http://www.w3.org/2000/svg" p-id="2469" width="28" height="28" xmlns:xlink="http://www.w3.org/1999/xlink"><defs><style type="text/css">@font-face { font-family: feedback-iconfont; src: url("//at.alicdn.com/t/font_1031158_u69w8yhxdu.woff2?t=1630033759944") format("woff2"), url("//at.alicdn.com/t/font_1031158_u69w8yhxdu.woff?t=1630033759944") format("woff"), url("//at.alicdn.com/t/font_1031158_u69w8yhxdu.ttf?t=1630033759944") format("truetype"); }
</style></defs><path d="M490.40135 166.069621L144.182989 826.252359c-30.71808 58.684332-24.446472 69.819636 31.742016 69.819637H847.947003c56.188488 0 62.460096-11.135304 31.67802-69.819637L533.534654 166.069621c-26.55834-50.684832-16.574964-50.684832-43.133304 0z m-113.336917-59.452285c74.491344-142.071121 195.315793-142.071121 269.807138 0l346.218361 660.118743c74.491344 142.071121 9.5994 257.263921-145.078933 257.263921H175.989001C21.310668 1024-43.581276 908.8072 30.910068 766.736079L377.064433 106.617336z" p-id="2470" fill="#ffffff"></path><path d="M447.972002 384.039998m63.996 0l0 0q63.996 0 63.996 63.996l0 127.992q0 63.996-63.996 63.996001l0 0q-63.996 0-63.996-63.996001l0-127.992q0-63.996 63.996-63.996Z" p-id="2471" fill="#ffffff"></path><path d="M511.968002 768.015999m-63.996 0a63.996 63.996 0 1 0 127.992 0 63.996 63.996 0 1 0-127.992 0Z" p-id="2472" fill="#ffffff"></path></svg>