<?xml version="1.0" standalone="no"?><!DOCTYPE svg PUBLIC "-//W3C//DTD SVG 1.1//EN" "http://www.w3.org/Graphics/SVG/1.1/DTD/svg11.dtd"><svg t="1657696635840" class="icon" viewBox="0 0 1255 1024" version="1.1" xmlns="http://www.w3.org/2000/svg" p-id="1845" width="34.31640625" height="28" xmlns:xlink="http://www.w3.org/1999/xlink"><defs><style type="text/css">@font-face { font-family: feedback-iconfont; src: url("//at.alicdn.com/t/font_1031158_u69w8yhxdu.woff2?t=1630033759944") format("woff2"), url("//at.alicdn.com/t/font_1031158_u69w8yhxdu.woff?t=1630033759944") format("woff"), url("//at.alicdn.com/t/font_1031158_u69w8yhxdu.ttf?t=1630033759944") format("truetype"); }
</style></defs><path d="M781.156437 200.744647h-36.710628a211.671917 211.671917 0 0 0-49.207862 9.372926l-156.215437 84.356336V156.223248a44.5214 44.5214 0 0 1 44.521399-43.740323h110.131883V46.091365a43.740322 43.740322 0 0 1 44.5214-46.083554H781.156437a43.740322 43.740322 0 0 1 43.740322 44.521399v66.391561H937.371874a44.5214 44.5214 0 0 1 44.521399 43.740322V298.379295l-168.712672-91.38603a184.334216 184.334216 0 0 0-32.024164-6.248618z m336.644267 502.23263a942.760162 942.760162 0 0 0-241.352851 92.167108c-124.191272 70.296947-131.220967 56.237557-225.731306 8.591849a1237.226261 1237.226261 0 0 0-224.950229-82.794182L359.374757 624.869559c-67.172638-89.042799-78.107718-128.096658-44.521399-156.215437L692.894715 267.136208a142.156048 142.156048 0 0 1 133.564199 0l378.822434 201.517914c23.432316 20.308007 43.740322 60.142943-29.680933 156.215437zM1249.802748 910.743808a44.5214 44.5214 0 0 1-44.5214 43.740323 42.959245 42.959245 0 0 1-20.308007-4.686464 214.015149 214.015149 0 0 0-113.256191-39.053859 328.833495 328.833495 0 0 0-156.215437 65.610484 229.636692 229.636692 0 0 1-156.215437 44.521399 234.323155 234.323155 0 0 1-156.215437-44.521399 359.295505 359.295505 0 0 0-156.215437-65.610484 128.096658 128.096658 0 0 0-114.037269 39.053859 42.178168 42.178168 0 0 1-19.52693 4.686464 43.740322 43.740322 0 0 1-44.521399-43.740323 52.332171 52.332171 0 0 1 21.870161-44.521399s130.43989-149.966819 334.301035 0a260.87978 260.87978 0 0 0 110.91296 44.521399H781.156437a264.785166 264.785166 0 0 0 110.91296-44.521399 248.382545 248.382545 0 0 1 333.519958 0 51.551094 51.551094 0 0 1 22.651238 44.521399z" p-id="1846" fill="#ffffff" data-spm-anchor-id="a313x.7781069.0.i18" class=""></path><path d="M336.723519 253.076819H312.510126a143.718202 143.718202 0 0 0-32.805242 6.248617l-102.321111 53.113249V223.395886a29.680933 29.680933 0 0 1 29.680933-28.899856h73.421255V149.97463A29.680933 29.680933 0 0 1 312.510126 120.293697h29.680933a29.680933 29.680933 0 0 1 29.680933 29.680933v44.5214h73.421255a29.680933 29.680933 0 0 1 29.680933 28.899856v94.510339l-114.818346-60.142943a124.191272 124.191272 0 0 0-23.432315-4.686463z" p-id="1847" fill="#ffffff"></path><path d="M353.907217 721.723129H312.510126a172.618058 172.618058 0 0 1-78.107718-26.556624 156.215437 156.215437 0 0 0-221.825921 0 35.92955 35.92955 0 0 0-12.497235 29.680933 28.899856 28.899856 0 0 0 29.680933 28.899856 27.337701 27.337701 0 0 0 13.278312 0 78.107718 78.107718 0 0 1 78.107719-25.775547 234.323155 234.323155 0 0 1 103.883265 43.740322 144.499279 144.499279 0 0 0 103.102189 29.680933c65.610484 0 78.107718-15.621544 78.107718-15.621543zM294.545351 633.461408c-78.107718-103.883266-94.510339-149.185742-51.551094-180.42883l210.890839-110.91296-84.356335-44.5214a92.167108 92.167108 0 0 0-89.0428 0L29.760185 429.600262c-24.99447 17.964775-15.621544 43.740322 28.899856 103.102189l44.521399 66.39156a786.544725 786.544725 0 0 1 149.185743 55.456481c35.148473 17.964775 51.551094 28.118779 74.202332 26.556624z" p-id="1848" fill="#ffffff"></path></svg>