<?xml version="1.0" standalone="no"?><!DOCTYPE svg PUBLIC "-//W3C//DTD SVG 1.1//EN" "http://www.w3.org/Graphics/SVG/1.1/DTD/svg11.dtd"><svg t="1657696474144" class="icon" viewBox="0 0 1189 1024" version="1.1" xmlns="http://www.w3.org/2000/svg" p-id="1674" xmlns:xlink="http://www.w3.org/1999/xlink" width="32.51171875" height="28"><defs><style type="text/css">@font-face { font-family: feedback-iconfont; src: url("//at.alicdn.com/t/font_1031158_u69w8yhxdu.woff2?t=1630033759944") format("woff2"), url("//at.alicdn.com/t/font_1031158_u69w8yhxdu.woff?t=1630033759944") format("woff"), url("//at.alicdn.com/t/font_1031158_u69w8yhxdu.ttf?t=1630033759944") format("truetype"); }
</style></defs><path d="M1013.740598 1005.352421a42.361263 42.361263 0 1 1-59.284211-60.146526 500.520421 500.520421 0 0 0 148.695579-355.705263 508.173474 508.173474 0 1 0-1016.346947 0 500.520421 500.520421 0 0 0 148.641684 355.705263 42.361263 42.361263 0 1 1-60.092631 59.715368A587.344842 587.344842 0 0 1 594.978493 1.347368c325.632 0 590.309053 262.575158 592.842105 588.153264a584.380632 584.380632 0 0 1-174.08 415.851789z" fill="#ffffff" p-id="1675"></path><path d="M44.497651 678.858105a42.361263 42.361263 0 1 1 0-84.668631h84.668631a42.361263 42.361263 0 1 1 0 84.668631H44.497651z m1016.293052 0a42.361263 42.361263 0 1 1 0-84.668631h84.668632a42.361263 42.361263 0 1 1 0 84.668631h-84.668632zM183.761651 243.119158a42.522947 42.522947 0 1 1 60.092631-60.146526l42.361263 42.361263a42.522947 42.522947 0 0 1-60.146526 60.146526l-42.307368-42.361263z m719.872 719.872a42.522947 42.522947 0 0 1 60.146526-60.146526l42.307368 42.361263a42.522947 42.522947 0 1 1-60.092631 60.146526l-42.361263-42.361263z m42.361263-780.018526a42.522947 42.522947 0 0 1 60.092631 60.146526l-42.307368 42.361263a42.522947 42.522947 0 1 1-60.146526-60.146526l42.361263-42.361263zM226.122914 902.844632a42.522947 42.522947 0 0 1 60.146526 60.146526l-42.361263 42.361263a42.522947 42.522947 0 1 1-60.092632-60.146526l42.307369-42.361263z m326.494315-816.828632a42.361263 42.361263 0 0 1 84.722527 0v84.668632a42.361263 42.361263 0 0 1-84.722527 0V86.016z m155.863579 457.781895l-42.361263 11.425684c-31.043368 7.329684-61.493895 17.084632-91.082105 29.210947a55.511579 55.511579 0 0 0-16.060632 70.709895 37.726316 37.726316 0 0 0 54.649264 17.785263c33.414737-30.72 64.458105-63.973053 92.698947-99.489684l10.186105-11.479579 21.180632-25.384421-29.210948 7.221895zM644.022703 473.034105l42.361263-11.425684c33.414737-8.461474 68.985263-16.922947 104.55579-24.953263l34.330947-8.084211 13.581474-2.96421a42.361263 42.361263 0 0 1 42.307368 67.799579c0 2.101895-4.203789 5.928421-8.461473 10.563368l-22.420211 27.971369c-23.713684 28.779789-47.427368 57.559579-70.278737 84.668631l-10.186105 11.856842a717.338947 717.338947 0 0 1-111.777684 116.035369 122.341053 122.341053 0 0 1-174.888421-49.960421 140.126316 140.126316 0 0 1 45.702737-181.679158 513.239579 513.239579 0 0 1 115.173052-39.828211z" fill="#ffffff" p-id="1676"></path></svg>