<?xml version="1.0" standalone="no"?><!DOCTYPE svg PUBLIC "-//W3C//DTD SVG 1.1//EN" "http://www.w3.org/Graphics/SVG/1.1/DTD/svg11.dtd"><svg t="1657696661970" class="icon" viewBox="0 0 1024 1024" version="1.1" xmlns="http://www.w3.org/2000/svg" p-id="2053" width="28" height="28" xmlns:xlink="http://www.w3.org/1999/xlink"><defs><style type="text/css">@font-face { font-family: feedback-iconfont; src: url("//at.alicdn.com/t/font_1031158_u69w8yhxdu.woff2?t=1630033759944") format("woff2"), url("//at.alicdn.com/t/font_1031158_u69w8yhxdu.woff?t=1630033759944") format("woff"), url("//at.alicdn.com/t/font_1031158_u69w8yhxdu.ttf?t=1630033759944") format("truetype"); }
</style></defs><path d="M297.04 409.04L512 194.08l214.96 214.96c118.72 118.72 118.72 311.2 0 429.92-118.72 118.72-311.2 118.72-429.92 0-118.72-118.72-118.72-311.2 0-429.92zM592 832a48 48 0 1 0 0-96 48 48 0 0 0 0 96z m72-128a24 24 0 1 0 0-48 24 24 0 0 0 0 48zM208 292.16l30.576-30.688a25.696 25.696 0 0 1 36.4 0c10.048 10.08 10.048 26.4 0 36.496l-72.784 72.976a25.6 25.6 0 0 1-18.16 7.552 25.6 25.6 0 0 1-18.24-7.552l-72.768-72.976a25.84 25.84 0 0 1 0-36.48 25.696 25.696 0 0 1 36.4 0L160 292.128V136a24 24 0 0 1 48 0v156.16z m608-96l30.576-30.688a25.696 25.696 0 0 1 36.4 0c10.048 10.08 10.048 26.4 0 36.496l-72.784 72.976a25.6 25.6 0 0 1-18.16 7.552 25.6 25.6 0 0 1-18.24-7.552l-72.768-72.976a25.84 25.84 0 0 1 0-36.48 25.696 25.696 0 0 1 36.4 0L768 196.128V40a24 24 0 0 1 48 0v156.16z" fill="#ffffff" p-id="2054"></path></svg>